PathFileType	4	(X/Y/Z)	C:/Users/beibeiliu/ov580/test_trc/capture2\sequence.19_training_dense_right.trc
DataRate	CameraRate	NumFrames	NumMarkers	Units	OrigDataRate	OrigDataStartFrame	OrigNumFrames
120	120	8	19	mm	120	44	351
Frame#	Time	ThumbCMC			ThumbMCP			ThumbIP			ThumbTip			IndexMCP			IndexPIP			IndexTip			MiddleMCP			MiddlePIP			MiddleTip			RingMCP			RingPIP			RingTip			PinkyMCP			PinkyPIP			PinkyTip			BackHand1			BackHand2			BackHand3	
		X0	Y0	Z0	X1	Y1	Z1	X2	Y2	Z2	X3	Y3	Z3	X4	Y4	Z4	X5	Y5	Z5	X6	Y6	Z6	X7	Y7	Z7	X8	Y8	Z8	X9	Y9	Z9	X10	Y10	Z10	X11	Y11	Z11	X12	Y12	Z12	X13	Y13	Z13	X14	Y14	Z14	X15	Y15	Z15	X16	Y16	Z16	X17	Y17	Z17	X18	Y18	Z18	
43	0.358333	166.093	88.5185	46.9247	152.857	111.322	32.23	147.601	129.555	12.3423	137.315	135.045	-9.19863	175.089	69.0771	-23.3537	171.639	81.3005	-56.0964	153.175	95.3332	-69.185	162.002	53.5447	-32.843	153.69	65.2989	-62.931	130.749	87.4677	-71.5703	146.912	41.2066	-30.9383	135.218	54.951	-59.9253	115.34	76.3992	-64.6354	126.319	28.8972	-22.1058	118.792	37.9767	-47.0872	104.045	59.2928	-61.5421	150.825	30.6078	19.7409	150.534	24.724	43.8077	170.084	48.4672	34.6785	
44	0.366667	165.367	82.8075	41.7963	158.384	108.227	31.3158	154.338	126.686	11.1819	143.841	134.193	-11.6133	176.409	65.2311	-29.6777	172.248	74.9008	-55.3829	148.483	91.1404	-70.7048	159.987	50.6692	-37.257	147.278	60.6558	-64.7253	127.189	87.2581	-71.8929	142.075	39.1731	-35.7461	131.78	53.6221	-61.1842	113.847	77.3062	-64.056	123.801	32.6912	-21.6584	111.803	39.2897	-47.9186	104.17	62.609	-60.0072	147.451	27.2061	14.5342	145.254	23.6413	46.8415	170.107	46.6011	33.7238	
45	0.375	166.969	79.9744	41.9642	163.028	107.661	27.6024	161.793	126.627	7.69989	150.485	134.403	-15.8618	172.249	60.0971	-26.3018	171.052	71.8774	-56.2025	149.827	91.895	-71.6567	158.928	48.0633	-36.7732	150.157	58.6743	-63.9204	126.324	85.881	-71.9675	140.064	39.2317	-31.1976	129.365	52.5352	-60.5155	114.071	78.7791	-65.4439	118.519	29.1794	-23.0935	111.968	38.2444	-45.0966	97.0163	62.8433	-60.7683	144.884	28.3856	17.2791	141.74	19.4602	47.0021	170.791	45.294	30.1703	
46	0.383333	170.566	79.2881	42.6814	166.077	103.478	28.048	165.273	124.43	5.11464	155.147	129.334	-12.6008	174.113	59.8628	-27.525	167.893	66.9275	-56.7517	147.797	89.1964	-72.2425	155.657	45.0359	-36.0897	147.683	58.0095	-65.0048	127.184	84.7791	-71.7416	138.336	37.5183	-31.0314	128.484	51.3421	-60.0748	114.532	79.1048	-65.0313	114.895	28.0758	-23.2841	105.131	41.5607	-48.289	100.947	64.6707	-59.2339	137.787	24.974	13.7976	139.474	18.9781	42.7494	166.02	39.744	30.2859	
47	0.391667	168.346	72.4429	44.9695	169.934	102.447	28.6866	170.373	120.591	8.70798	157.301	124.739	-14.7238	173.599	56.8121	-26.0081	166.075	62.973	-57.6623	154.384	85.3299	-72.2959	151.628	41.3676	-37.7475	144.341	57.6695	-66.3056	128.63	87.5847	-72.4626	134.533	35.1379	-30.4897	123.524	49.6262	-60.5926	114.616	76.9517	-64.9082	113.317	30.338	-21.6617	108.411	41.5549	-45.7561	101.161	64.6377	-60.148	136.043	21.7872	17.7775	138.922	18.8292	47.556	165.098	37.111	34.2686	
48	0.4	170.437	72.1176	45.0517	171.385	99.8886	30.755	171.223	117.809	6.85042	161.855	124.692	-11.968	171.656	51.9964	-31.1994	171.908	61.3533	-55.1396	154.062	80.261	-71.9572	150.269	40.0985	-37.6884	145.738	55.2443	-64.3905	129.874	85.8607	-72.3756	135.364	35.0477	-31.8959	125.81	46.5507	-57.9995	112.646	80.7575	-64.4842	111.251	30.9386	-19.2655	102.082	40.1794	-45.8577	101.034	64.8914	-59.3341	133.59	22.1926	19.8862	134.895	16.6424	44.9437	164.096	34.828	33.2249	
49	0.408333	168.952	69.088	42.9909	171.268	97.7877	25.4156	172.8	115.462	9.61225	162.188	122.706	-14.5029	169.961	50.9199	-27.2095	167.858	61.9149	-58.2555	154.121	83.1347	-73.4782	152.853	40.7331	-33.3207	140.737	54.3984	-65.5899	129.868	82.928	-71.8031	130.591	33.3462	-32.9458	127.365	47.575	-58.0002	115.022	80.2709	-65.4564	112.792	32.306	-18.1076	101.855	41.2104	-44.9036	100.538	64.0384	-59.7239	132.72	21.7554	17.4644	134.676	19.3127	45.3022	162.93	31.899	33.4323	
50	0.416667	172.288	70.3156	42.5147	173.517	98.0304	29.0034	173.909	113.298	9.80933	165.369	122.489	-15.8618	173.169	48.8418	-28.3665	171.151	58.9193	-57.0421	157.854	78.8714	-73.1581	152.185	38.5865	-38.1447	145.645	51.8151	-62.7943	126.941	80.9273	-71.6521	129.62	32.2237	-31.9798	124.872	46.186	-57.4253	114.07	79.3385	-64.7415	111.552	32.1709	-19.6026	107.267	41.3691	-45.567	97.4735	66.2876	-58.4875	134.652	22.7991	15.3371	134.406	17.2441	44.4443	160.393	31.382	34.5741	
